<svg width="351" height="383" viewBox="0 0 351 383" fill="none" xmlns="http://www.w3.org/2000/svg">
<path d="M341.947 0H199.614C195.274 0 191.755 3.51456 191.755 7.85V110.685C191.755 115.02 195.274 118.535 199.614 118.535H341.947C346.287 118.535 349.806 115.02 349.806 110.685V7.85C349.806 3.51456 346.287 0 341.947 0Z" fill="#F2F6FB"/>
<path d="M215.519 109.313C207.619 109.313 201.214 102.851 201.214 94.8791C201.214 86.9076 207.619 80.4454 215.519 80.4454C223.42 80.4454 229.824 86.9076 229.824 94.8791C229.824 102.851 223.42 109.313 215.519 109.313ZM215.55 94.8185C216.606 94.8185 217.462 93.9662 217.462 92.9148C217.462 91.8634 216.606 91.0111 215.55 91.0111C214.495 91.0111 213.639 91.8634 213.639 92.9148C213.639 93.9662 214.495 94.8185 215.55 94.8185ZM215.55 95.7704C213.637 95.7704 212.086 97.3152 212.086 99.2209H219.015C219.015 97.3152 217.464 95.7704 215.55 95.7704Z" fill="#D8DEED"/>
<path d="M201.214 25.9506C201.214 25.0817 201.916 24.3774 202.787 24.3774H303.084C303.953 24.3774 304.657 25.0829 304.657 25.9506V68.8948C304.657 69.7637 303.955 70.468 303.084 70.468H202.787C201.918 70.468 201.214 69.7625 201.214 68.8948V25.9506ZM240.085 92.1905H319.033C320.617 92.1905 321.9 93.4727 321.9 95.0543C321.9 96.636 320.617 97.9181 319.033 97.9181H240.085C238.501 97.9181 237.218 96.636 237.218 95.0543C237.218 93.4727 238.501 92.1905 240.085 92.1905ZM240.085 101.498H333.386C334.97 101.498 336.253 102.78 336.253 104.362C336.253 105.943 334.97 107.226 333.386 107.226H240.085C238.501 107.226 237.218 105.943 237.218 104.362C237.218 102.78 238.501 101.498 240.085 101.498ZM240.085 82.8831H298.939C300.522 82.8831 301.806 84.1653 301.806 85.7469C301.806 87.3285 300.522 88.6107 298.939 88.6107H240.085C238.501 88.6107 237.218 87.3285 237.218 85.7469C237.218 84.1653 238.501 82.8831 240.085 82.8831ZM191.755 6.70378C191.755 3.00138 194.76 0 198.465 0H343.401C347.107 0 350.111 3.00057 350.111 6.70378V13.4076H191.755V6.70378Z" fill="#A599FF" fill-opacity="0.22"/>
<path d="M316.888 60.386H335.528C338.315 60.386 340.575 62.643 340.575 65.4272C340.575 68.2113 338.315 70.4683 335.528 70.4683H316.888C314.1 70.4683 311.841 68.2113 311.841 65.4272C311.841 62.643 314.1 60.386 316.888 60.386Z" fill="#7E70EB"/>
<path d="M200.756 9.75117C202.357 9.75117 203.655 8.45512 203.655 6.85636C203.655 5.2576 202.357 3.96155 200.756 3.96155C199.155 3.96155 197.857 5.2576 197.857 6.85636C197.857 8.45512 199.155 9.75117 200.756 9.75117Z" fill="#FF5645"/>
<path d="M210.215 9.75117C211.816 9.75117 213.114 8.45512 213.114 6.85636C213.114 5.2576 211.816 3.96155 210.215 3.96155C208.614 3.96155 207.316 5.2576 207.316 6.85636C207.316 8.45512 208.614 9.75117 210.215 9.75117Z" fill="#FFCB3D"/>
<path d="M219.979 9.75117C221.58 9.75117 222.877 8.45512 222.877 6.85636C222.877 5.2576 221.58 3.96155 219.979 3.96155C218.378 3.96155 217.08 5.2576 217.08 6.85636C217.08 8.45512 218.378 9.75117 219.979 9.75117Z" fill="#3ABF7C"/>
<path d="M330.059 284.405V256.185C330.059 239.072 330.059 221.998 330.059 204.924V178.744C330.059 177.802 313.752 177.017 294.144 177.017H290.058C270.489 177.017 254.143 177.802 254.143 178.744V284.484C254.143 285.426 270.45 286.211 290.058 286.211H294.144C313.713 286.25 330.059 285.426 330.059 284.405Z" fill="#D8DEED"/>
<path d="M214.102 381.471L214.26 381.549C215.085 381.981 216.146 381.746 216.539 381L262.552 296.573C262.984 295.788 262.631 294.807 261.806 294.375L261.648 294.297C260.823 293.865 259.762 294.1 259.369 294.846L247.974 315.727C240.547 329.386 233.121 343.006 225.655 356.665L213.356 379.194C212.924 379.979 213.277 381 214.102 381.471Z" fill="#D8DEED"/>
<path d="M328.37 292.923H299.567C282.12 292.923 264.674 292.923 247.267 292.923H220.547C219.603 292.923 218.778 293.708 218.778 294.65V294.846C218.778 295.788 219.564 296.573 220.547 296.573H328.448C329.391 296.573 330.216 295.788 330.216 294.846V294.65C330.216 293.708 329.391 292.923 328.37 292.923Z" fill="#D8DEED"/>
<path d="M342.398 379.194L330.099 356.665C322.672 343.006 315.246 329.386 307.78 315.727L296.384 294.846C295.991 294.1 294.93 293.826 294.105 294.297L293.948 294.375C293.123 294.807 292.769 295.827 293.202 296.573L339.215 381C339.608 381.746 340.669 382.02 341.494 381.549L341.651 381.471C342.476 381 342.83 379.979 342.398 379.194Z" fill="#D8DEED"/>
<path d="M146.137 281.244C148.961 282.646 149.926 284.034 150.076 285.248C150.296 287.29 149.819 288.931 148.68 291.629C146.475 297.026 144.601 302.496 143.094 308.112C142.653 308.017 142.213 307.917 141.774 307.812C142.695 311.318 142.663 314 142.663 314C101.377 314 81.0789 314 81.7674 314C82.8003 314 90.266 293.807 116.611 291.755C117.367 291.695 118.102 291.656 118.816 291.639C118.977 290.969 119.254 290.364 119.756 289.45C118.652 286.748 117.803 280.414 117.514 277.776C117.514 277.667 117.551 277.559 117.588 277.451C117.736 277.162 118.144 277.017 118.477 277.162L126.817 281.244C128.241 280.724 129.747 280.251 131.336 279.778C132.841 279.318 134.346 278.926 135.761 278.567L138.747 270.818C138.857 270.522 139.224 270.336 139.518 270.485C139.628 270.522 139.701 270.596 139.775 270.707C141.32 272.885 145.116 278.437 146.137 281.244Z" fill="#FFCB3D"/>
<path d="M80.1847 311.512C79.8738 309.548 80.7031 308.353 82.6726 307.926C90.7953 307.477 98.0228 308.079 104.355 309.733C110.687 311.386 114.375 312.83 115.419 314.064H82.6726C81.2823 314.064 80.1847 312.938 80.1847 311.512ZM144.696 298.223C145.643 297.126 148.556 292.412 148.556 292.412C148.556 292.412 145.351 302.133 143.421 308.162C143.53 307.651 142 311.744 141.818 310.684V310.647C141.563 309.441 140.58 308.564 139.342 308.491C138.176 308.418 136.938 308.382 135.626 308.382C133.951 308.382 132.239 308.491 130.564 308.711L128.123 301.292C130.491 302.498 133.186 302.937 135.809 302.718C136.719 302.644 137.593 302.462 138.467 302.206C140.871 301.512 143.02 300.086 144.696 298.223ZM135.934 289.253C136.451 289.832 137.293 290.031 138.023 289.702C138.687 289.316 139.039 288.569 138.898 287.809C138.839 287.49 139.051 287.183 139.371 287.123C139.691 287.064 139.998 287.276 140.058 287.595C140.292 288.86 139.694 290.11 138.583 290.738L138.542 290.759C137.555 291.22 136.441 291.092 135.596 290.513C135.332 291.146 134.807 291.686 134.099 292.006C132.675 292.546 131.08 292.014 130.362 290.758C130.201 290.476 130.299 290.116 130.582 289.955C130.865 289.794 131.225 289.892 131.386 290.174C131.81 290.917 132.789 291.243 133.646 290.919C134.295 290.625 134.666 290.025 134.599 289.437C134.597 289.433 134.595 289.429 134.593 289.425C134.422 289.129 134.388 288.759 134.422 288.425C134.457 288.166 134.593 287.944 134.764 287.833C135.105 287.574 135.617 287.722 135.821 288.092C136.002 288.449 136.017 288.883 135.934 289.253ZM125.98 289.27C126.394 290.047 126.014 291.158 125.6 291.233C125.289 291.27 124.91 290.862 124.772 290.603C124.599 290.307 124.565 289.936 124.599 289.603C124.634 289.344 124.772 289.121 124.944 289.01C125.289 288.751 125.773 288.899 125.98 289.27ZM143.676 282.99C144.059 283.767 143.711 284.804 143.292 284.953C142.979 284.99 142.595 284.582 142.456 284.323C142.281 284.027 142.247 283.656 142.281 283.323C142.316 283.064 142.456 282.841 142.63 282.73C142.979 282.471 143.467 282.619 143.676 282.99Z" fill="#DE6903"/>
<path d="M192.757 378.557H254.534C255.459 378.557 256.208 379.306 256.208 380.23C256.208 381.153 255.459 381.902 254.534 381.902H192.757C191.832 381.902 191.083 381.153 191.083 380.23C191.083 379.306 191.832 378.557 192.757 378.557ZM262.048 378.557H301.106C302.031 378.557 302.781 379.306 302.781 380.23C302.781 381.153 302.031 381.902 301.106 381.902H262.048C261.123 381.902 260.373 381.153 260.373 380.23C260.373 379.306 261.123 378.557 262.048 378.557Z" fill="#FF5645"/>
<path d="M300.67 378.557H262.128L265.219 358.251H292.685L300.67 378.557ZM255.57 378.916C255.285 378.691 254.925 378.557 254.534 378.557H192.757C192.696 378.557 192.636 378.56 192.577 378.566C192.555 378.395 192.545 378.193 192.549 377.95C192.592 377.69 192.597 377.393 192.678 377.097C193.164 375.32 193.753 374.141 195.476 373.092C197.199 372.043 198.957 371.107 200.79 370.283C207.548 367.164 209.857 367.204 214.301 364.343C216.14 363.148 217.831 361.764 219.41 360.267C220.463 359.268 222.739 357.647 226.238 355.402L253.351 355.483L255.57 378.916Z" fill="#474961"/>
<path d="M300.353 291.179C300.29 309.367 299.665 333.53 299.449 341.842C299.411 342.999 299.563 346.132 297.291 348.107C296.647 348.686 296.003 348.924 294.792 349.435C293.845 349.843 289.604 351.069 281.123 351.75C280.593 351.784 280.025 351.818 279.457 351.784C270.71 351.478 268.552 350.933 265.182 349.98C262.948 349.367 261.32 347.46 261.093 345.213C260.033 335.304 257.117 308.303 256.89 305.92C256.587 302.889 256.322 299.451 256.095 295.535L255.974 293.702L245.496 289.576C249.872 306.31 254.117 323.641 257.912 340.871C258.102 341.716 258.442 343.616 257.458 345.41C255.64 348.823 250.907 348.647 239.586 349.984C226.258 351.567 220.692 353.22 217.663 349.843C216.641 348.752 216.3 347.626 216.186 347.099C213.422 333.413 199.715 293.693 194.377 265.195C194.377 265.125 194.339 265.09 194.339 265.02C192.635 255.837 199.034 247.182 208.538 246.021C211.68 245.634 214.52 245.262 217.663 244.875C218.615 244.763 219.565 244.731 220.505 244.773L267.419 243.961C295.244 243.719 291.412 240.493 300.113 244.491C305.914 247.157 309.863 254.746 311.961 267.258C312.712 276.772 308.843 284.745 300.353 291.179Z" fill="#7E70EB"/>
<path opacity="0.176986" d="M300.401 291.143C300.404 290.192 300.405 289.259 300.405 288.344C300.405 281.262 300.443 275.167 300.519 271.252C300.595 268.153 301.163 251.129 293.817 247.587C293.173 247.281 292.53 247.043 291.242 246.6C290.22 246.259 284.919 244.489 278.104 244.761C273.674 244.932 267.01 245.204 261.519 249.46C253.947 255.351 254.136 264.646 254.212 266.144L256.024 293.721L245.551 289.598C242.633 278.441 239.658 267.55 236.718 257.133C234.71 250.042 227.999 245.135 220.636 244.771L267.419 243.961C295.244 243.719 291.413 240.493 300.113 244.491C305.914 247.157 309.863 254.746 311.961 267.258C312.711 276.754 308.858 284.715 300.401 291.143Z" fill="#1A0E71"/>
<path d="M260.496 174.63C260.951 174.434 261.417 174.259 261.893 174.107L269.974 171.412C270.442 171.327 270.908 171.252 271.372 171.188C272.009 170.458 273.307 169.839 275.556 169.149C283.544 166.657 293.739 170.802 297.37 180.091C300.534 188.186 304.738 197.329 304.346 197.449C304.263 197.475 302.428 198.786 299.915 199.598C303.55 213.302 305.509 222.476 305.791 227.119C306.353 236.368 303.238 242.567 292.685 243.352C282.131 244.138 267.443 245.245 265.717 242.178C264.607 240.206 259.391 228.031 250.069 205.654C246.584 206.78 244.764 207.357 244.609 207.384C244.122 207.469 242.468 202.026 241.391 193.42C240.156 183.545 246.152 175.309 256.089 173.625C257.731 173.339 259.2 173.674 260.496 174.63Z" fill="#FF5645"/>
<path opacity="0.176986" d="M260.52 174.648C250.637 178.742 245.73 192.766 249.021 203.136C249.384 203.986 249.743 204.822 250.095 205.645C246.593 206.777 244.764 207.357 244.609 207.384C244.122 207.469 242.468 202.026 241.391 193.42C240.156 183.545 246.152 175.309 256.089 173.625C257.741 173.338 259.219 173.679 260.52 174.648V174.648Z" fill="#1A0E71"/>
<path d="M244.206 175.802C244.206 175.802 243.486 178.627 247.31 177.847C251.135 177.066 252.233 176.694 252.233 176.694L251.248 174.129L244.206 175.802Z" fill="#482D1F"/>
<path d="M265.826 173.815L272.869 206.656L274.542 197.741C283.367 199.468 290.549 200.331 296.087 200.331C296.117 200.331 296.146 200.331 296.176 200.33C294.928 205.098 291.971 225.788 287.37 233.793C281.554 243.912 278.16 245.023 269.571 244.196C268.692 244.112 267.863 243.956 267.08 243.731C267.455 243.853 267.842 243.956 268.241 244.039L223.808 244.721L223.805 244.733L223.67 244.723L223.498 244.726C223.417 244.727 223.337 244.715 223.261 244.693L205.082 243.358C202.165 243.144 199.48 241.691 197.706 239.368L195.663 236.691C195.179 236.057 194.866 235.309 194.753 234.519C194.389 231.966 196.165 229.602 198.721 229.239L204.153 228.466C207.876 227.936 211.656 227.943 215.378 228.486L226.592 230.124C235.107 227.451 246.469 223.94 249.305 223.335L245.783 207.008L249.947 205.375C251.254 208.356 252.484 211.156 253.637 213.775C252.331 201.332 252.478 187.59 250.907 175.383L246.97 175.468C244.622 176.397 239.7 177.958 239.17 174.65C239.17 174.65 245.682 172.011 250.264 170.078L250.605 169.78C250.908 169.52 251.173 169.371 251.551 169.26C251.627 169.223 251.703 169.223 251.778 169.223L252.03 169.187C251.348 169.238 250.869 169.225 250.703 169.207C247.536 169.069 243.654 163.469 241.787 155.308C241.614 154.651 241.555 153.985 241.458 153.322L240.98 146.683C240.848 145.202 241.134 143.722 241.777 142.398C241.839 142.243 241.904 142.126 241.97 142.008C242.201 141.615 242.432 141.222 242.67 140.903C243.582 139.631 244.714 138.675 245.905 137.976C248.742 136.538 252.055 136.179 253.923 136.243C254.19 136.257 255.03 136.297 256.212 136.344C257.329 136.51 258.399 136.567 259.496 136.51C260.103 136.495 260.602 136.975 260.654 137.567L261.122 147.08C261.125 147.15 261.144 147.25 261.178 147.378C264.99 145.829 267.72 146.713 269.367 150.029C271.836 155.003 269.6 153.927 268.502 155.253C267.71 156.179 266.725 156.637 266.062 156.88C265.939 156.906 265.812 156.977 265.701 157.076L268.667 157.104L269.191 159.149L269.384 161.744L271.333 171.242C271.333 171.242 268.584 172.747 265.826 173.815ZM259.204 168.164L258.981 167.097C258.888 167.135 258.794 167.175 258.697 167.215C255.546 168.53 255.728 168.44 255.508 168.533C255.036 168.678 254.576 168.794 254.14 168.885L257.534 168.405L259.204 168.164ZM290.171 358.359H265.289L265.825 350.146C268.882 350.997 271.282 351.496 279.505 351.784C280.073 351.818 280.641 351.784 281.171 351.75C285.218 351.425 288.299 350.976 290.518 350.551L292.685 358.251L290.171 358.359ZM252.268 348.449L253.351 355.483H226.095L227.893 351.496C230.943 351.148 234.772 350.561 239.634 349.983C245.385 349.304 249.435 349.016 252.268 348.449Z" fill="#DB9E75"/>
<path d="M261.518 167.879L260.087 168.076L259.286 168.192C259.259 168.184 259.232 168.177 259.205 168.169L258.98 167.094L263.044 165.374C262.497 166.612 261.988 167.447 261.518 167.879Z" fill="#482D1F"/>
<path d="M244.186 154.505C244.321 155.165 244.567 156.226 244.308 156.733C243.887 157.553 242.409 155.889 242.523 154.611C242.59 154.082 242.834 153.838 243.136 153.812C243.623 153.732 244.067 154.03 244.186 154.505ZM252.233 153.105C252.368 153.765 252.614 154.826 252.355 155.333C251.934 156.153 250.456 154.489 250.57 153.21C250.637 152.682 250.881 152.437 251.183 152.411C251.67 152.332 252.115 152.63 252.233 153.105Z" fill="#482D1F"/>
<path d="M246.046 154.426L246.031 158.159C246.069 158.617 246.455 159.013 246.899 158.975C247.161 158.973 247.328 158.958 247.999 158.887C248.299 158.855 248.504 158.834 248.747 158.813C248.955 158.795 249.11 158.614 249.092 158.41C249.074 158.205 248.89 158.054 248.682 158.072C248.434 158.094 248.224 158.115 247.92 158.147C247.277 158.216 247.12 158.229 246.863 158.233C246.848 158.233 246.791 158.174 246.786 158.126L246.803 154.427C246.804 154.221 246.635 154.055 246.426 154.054C246.217 154.054 246.047 154.221 246.046 154.426Z" fill="#482D1F"/>
<path d="M249.508 160.914C249.765 160.817 250.383 160.503 250.426 160.126C250.419 160.052 250.447 159.938 250.406 159.904C250.239 159.732 249.762 159.922 249.092 160.091C247.902 160.38 246.883 160.468 246.883 160.468C246.883 160.468 247.279 161.068 247.484 161.237C247.939 161.646 249.106 161.098 249.508 160.914Z" fill="#482D1F"/>
<path d="M258.655 150.355L259.91 149.936C260.627 149.697 260.993 150.753 260.276 150.992L259.021 151.411L258.075 151.727C258.182 152.073 258.254 152.434 258.288 152.809C258.546 155.713 256.358 158.273 253.4 158.527C250.826 158.748 248.518 157.151 247.791 154.819L247.128 154.922L246.58 155.006C246.692 157.803 244.546 160.221 241.676 160.467C238.718 160.721 236.11 158.573 235.851 155.669C235.593 152.764 237.781 150.204 240.739 149.95C243.392 149.722 245.779 151.43 246.418 153.902L246.951 153.82L247.128 154.922C246.477 154.449 246.475 154.433 246.473 154.417L245.879 153.986L246.418 153.902C246.445 154.006 246.468 154.11 246.489 154.216C246.537 154.026 246.686 153.861 246.951 153.82L247.575 153.724C247.319 150.822 249.506 148.264 252.463 148.01C254.64 147.823 256.628 148.938 257.629 150.698L258.655 150.355ZM246.056 155.087C245.743 155.136 245.45 154.923 245.405 154.615C245.361 154.314 245.572 154.033 245.879 153.986L246.951 153.82L247.575 153.724C247.575 153.725 247.575 153.727 247.575 153.729C247.609 154.106 247.682 154.471 247.791 154.819L247.128 154.922L246.056 155.087ZM247.128 154.922C246.857 154.964 246.661 154.845 246.556 154.672L247.128 154.922ZM253.301 157.416C255.634 157.216 257.36 155.196 257.156 152.906C256.952 150.615 254.895 148.921 252.562 149.121C250.229 149.322 248.503 151.341 248.707 153.632C248.911 155.922 250.968 157.617 253.301 157.416ZM240.838 151.061C238.505 151.261 236.779 153.281 236.983 155.571C237.187 157.862 239.244 159.557 241.577 159.356C243.91 159.156 245.636 157.136 245.432 154.846C245.425 154.768 245.416 154.692 245.405 154.615C245.088 152.434 243.084 150.868 240.838 151.061Z" fill="#482D1F"/>
<path opacity="0.2" d="M268.219 244.039L223.786 244.721L223.783 244.733L223.648 244.723L223.476 244.726C223.395 244.727 223.315 244.715 223.239 244.693L205.06 243.358C202.143 243.144 199.458 241.691 197.684 239.368L195.641 236.691C195.157 236.057 194.844 235.309 194.731 234.519C194.367 231.966 196.143 229.602 198.699 229.239L204.131 228.466C207.854 227.936 211.634 227.943 215.356 228.486L226.57 230.124C235.085 227.451 246.447 223.94 249.284 223.335L245.761 207.008L249.925 205.375C251.309 208.53 252.606 211.482 253.816 214.232C254.028 215.868 254.272 217.496 254.558 219.115C257.354 233.719 260.595 242.448 268.219 244.039Z" fill="#8C2A00"/>
<path d="M272.475 206.852C272.386 206.556 272.558 206.246 272.858 206.159C273.159 206.071 273.475 206.24 273.564 206.535L277.313 218.951C277.402 219.246 277.23 219.556 276.93 219.644C276.629 219.731 276.313 219.563 276.224 219.268L272.475 206.852ZM296.199 200.786C295.885 200.784 295.633 200.532 295.635 200.224C295.637 199.916 295.893 199.668 296.207 199.671C297.788 199.682 299.271 199.456 300.66 198.993C300.957 198.894 301.279 199.05 301.38 199.341C301.481 199.633 301.322 199.95 301.025 200.049C299.514 200.553 297.904 200.798 296.199 200.786Z" fill="#482D1F"/>
<path d="M264.771 156.745C265.346 156.581 267.049 156.214 268.095 154.952C269.196 153.663 269.738 151.639 268.925 149.768C268.194 147.965 266.249 146.602 264.441 146.795C263.426 146.919 262.639 147.472 262.533 147.556C261.288 148.521 260.791 149.758 260.791 149.758L260.49 150.621C260.34 150.428 260.196 150.248 260.059 150.082C257.161 147.42 255.488 145.573 252.553 142.915C251.077 143.415 241.602 146.726 240.89 146.414C240.89 142.637 242.297 141.421 242.535 141.102C243.447 139.83 244.782 138.595 245.974 137.895C248.811 136.458 252.124 136.099 253.992 136.162C254.259 136.176 255.099 136.216 256.281 136.264C256.624 136.272 256.967 136.28 257.385 136.281C258.372 136.271 259.133 136.28 259.589 136.278C265.356 136.156 267.528 135.372 270.53 136.644C270.706 136.724 270.952 136.838 271.243 136.995C271.443 136.481 271.676 136.002 271.907 135.559C278.255 123.483 285.966 126.217 285.966 126.262C285.966 126.307 291.808 126.307 293.302 132.156C293.451 132.737 294.499 136.843 292.824 140.229C290.578 144.658 283.877 147.385 276.254 145.524C276.348 146.819 276.257 147.88 276.218 148.433C275.802 152.722 273.42 155.427 272.724 156.569C271.796 158.092 270.648 159.624 269.283 161.166C267.58 160.161 266.276 158.989 265.371 157.648C265.175 157.353 264.974 157.052 264.771 156.745Z" fill="#482D1F"/>
<path d="M189.29 234.608C193.564 230.437 202.289 227.167 216.706 235.407C218.904 236.623 218.102 240.444 215.665 240.437L190.547 240.268C188.659 240.281 187.865 236.011 189.29 234.608Z" fill="#474961"/>
<path d="M139.062 314.062H144.406C147.161 314.913 148.899 316.717 149.62 319.473C150.34 322.23 148.602 324.875 144.406 327.407L144.363 327.398L144.366 327.407H78.3523C74.1559 324.875 72.4179 322.23 73.1383 319.473C73.8587 316.717 75.5967 314.913 78.3523 314.062H139.062Z" fill="#7E70EB"/>
<path d="M165.546 149.621H45.4631C40.7478 149.621 36.897 146.134 36.897 141.865V70.2425C36.897 65.9729 40.7478 62.4861 45.4631 62.4861H165.546C170.261 62.4861 174.112 65.9729 174.112 70.2425V141.829C174.112 146.134 170.261 149.621 165.546 149.621Z" fill="#F2F6FB"/>
<path d="M36.9365 62.017C36.9365 57.6805 40.4556 54.165 44.7959 54.165H166.214C170.554 54.165 174.073 57.6826 174.073 62.017V71.0425H36.9365V62.017Z" fill="#A599FF" fill-opacity="0.22"/>
<path d="M58.0573 102.835H73.1855C74.4333 102.835 75.4449 103.846 75.4449 105.092C75.4449 106.339 74.4333 107.349 73.1855 107.349H58.0573C56.8094 107.349 55.7979 106.339 55.7979 105.092C55.7979 103.846 56.8094 102.835 58.0573 102.835ZM58.0573 127.955H73.1855C74.4333 127.955 75.4449 128.966 75.4449 130.212C75.4449 131.459 74.4333 132.469 73.1855 132.469H58.0573C56.8094 132.469 55.7979 131.459 55.7979 130.212C55.7979 128.966 56.8094 127.955 58.0573 127.955ZM81.2408 102.835H96.369C97.6169 102.835 98.6284 103.846 98.6284 105.092C98.6284 106.339 97.6169 107.349 96.369 107.349H81.2408C79.993 107.349 78.9814 106.339 78.9814 105.092C78.9814 103.846 79.993 102.835 81.2408 102.835ZM81.2408 127.955H96.369C97.6169 127.955 98.6284 128.966 98.6284 130.212C98.6284 131.459 97.6169 132.469 96.369 132.469H81.2408C79.993 132.469 78.9814 131.459 78.9814 130.212C78.9814 128.966 79.993 127.955 81.2408 127.955ZM104.424 102.835H119.553C120.8 102.835 121.812 103.846 121.812 105.092C121.812 106.339 120.8 107.349 119.553 107.349H104.424C103.176 107.349 102.165 106.339 102.165 105.092C102.165 103.846 103.176 102.835 104.424 102.835ZM104.424 127.955H119.553C120.8 127.955 121.812 128.966 121.812 130.212C121.812 131.459 120.8 132.469 119.553 132.469H104.424C103.176 132.469 102.165 131.459 102.165 130.212C102.165 128.966 103.176 127.955 104.424 127.955ZM58.0573 90.2752H86.1526C87.4004 90.2752 88.412 91.2856 88.412 92.5321C88.412 93.7785 87.4004 94.789 86.1526 94.789H58.0573C56.8094 94.789 55.7979 93.7785 55.7979 92.5321C55.7979 91.2856 56.8094 90.2752 58.0573 90.2752ZM121.714 90.2752H153.346C154.593 90.2752 155.605 91.2856 155.605 92.5321C155.605 93.7785 154.593 94.789 153.346 94.789H121.714C120.466 94.789 119.454 93.7785 119.454 92.5321C119.454 91.2856 120.466 90.2752 121.714 90.2752ZM121.714 115.395H153.346C154.593 115.395 155.605 116.406 155.605 117.652C155.605 118.899 154.593 119.909 153.346 119.909H121.714C120.466 119.909 119.454 118.899 119.454 117.652C119.454 116.406 120.466 115.395 121.714 115.395ZM94.2079 115.395H99.9055C101.153 115.395 102.165 116.406 102.165 117.652C102.165 118.899 101.153 119.909 99.9055 119.909H94.2079C92.96 119.909 91.9484 118.899 91.9484 117.652C91.9484 116.406 92.96 115.395 94.2079 115.395ZM107.961 90.2752H113.658C114.906 90.2752 115.918 91.2856 115.918 92.5321C115.918 93.7785 114.906 94.789 113.658 94.789H107.961C106.713 94.789 105.701 93.7785 105.701 92.5321C105.701 91.2856 106.713 90.2752 107.961 90.2752ZM127.608 102.835H153.346C154.593 102.835 155.605 103.846 155.605 105.092C155.605 106.339 154.593 107.349 153.346 107.349H127.608C126.36 107.349 125.348 106.339 125.348 105.092C125.348 103.846 126.36 102.835 127.608 102.835Z" fill="#A599FF" fill-opacity="0.22"/>
<path d="M58.0573 115.395H86.1526C87.4004 115.395 88.412 116.406 88.412 117.652C88.412 118.898 87.4004 119.909 86.1526 119.909H58.0573C56.8094 119.909 55.7979 118.898 55.7979 117.652C55.7979 116.406 56.8094 115.395 58.0573 115.395ZM107.961 115.395H113.658C114.906 115.395 115.918 116.406 115.918 117.652C115.918 118.898 114.906 119.909 113.658 119.909H107.961C106.713 119.909 105.701 118.898 105.701 117.652C105.701 116.406 106.713 115.395 107.961 115.395Z" fill="#7E70EB"/>
<path d="M94.2077 90.2751H99.9053C101.153 90.2751 102.165 91.2856 102.165 92.532C102.165 93.7785 101.153 94.7889 99.9053 94.7889H94.2077C92.9598 94.7889 91.9482 93.7785 91.9482 92.532C91.9482 91.2856 92.9598 90.2751 94.2077 90.2751ZM127.608 127.955H153.345C154.593 127.955 155.605 128.966 155.605 130.212C155.605 131.458 154.593 132.469 153.345 132.469H127.608C126.36 132.469 125.348 131.458 125.348 130.212C125.348 128.966 126.36 127.955 127.608 127.955Z" fill="#FF5645"/>
<path d="M56.9765 41.9975H7.85882C3.51851 41.9975 0 45.5121 0 49.8475V74.575C0 78.9104 3.51851 82.425 7.85882 82.425H56.9765C61.3168 82.425 64.8353 78.9104 64.8353 74.575V49.8475C64.8353 45.5121 61.3168 41.9975 56.9765 41.9975Z" fill="#7E70EB"/>
<path fill-rule="evenodd" clip-rule="evenodd" d="M20.9593 52.9875L7.85889 63.5163L21.6118 71.0425" fill="#7E70EB"/>
<path d="M20.9593 52.9875L7.85889 63.5163L21.6118 71.0425" stroke="white" stroke-width="4.35294" stroke-linecap="round" stroke-linejoin="round"/>
<path fill-rule="evenodd" clip-rule="evenodd" d="M42.6494 71.0425L55.7979 62.0345L42.0449 52.9875" fill="#7E70EB"/>
<path d="M42.6494 71.0425L55.7979 62.0345L42.0449 52.9875" stroke="white" stroke-width="4.35294" stroke-linecap="round" stroke-linejoin="round"/>
<path fill-rule="evenodd" clip-rule="evenodd" d="M28.6846 75.511L34.67 49.2093Z" fill="#7E70EB"/>
<path d="M28.6846 75.511L34.67 49.2093" stroke="white" stroke-width="4.35294" stroke-linecap="round" stroke-linejoin="round"/>
<path d="M71.319 326.567C71.3839 326.562 71.4495 326.56 71.5155 326.56H149.711C151.23 326.56 152.461 327.79 152.461 329.308C152.461 330.825 151.23 332.055 149.711 332.055H71.5155C71.4495 332.055 71.3839 332.053 71.319 332.048V379.351C71.319 380.869 70.0876 382.099 68.5685 382.099C67.0494 382.099 65.8179 380.869 65.8179 379.351L65.8179 243.154C65.8179 241.832 66.7528 240.728 67.9983 240.465C68.3507 240.302 68.7436 240.21 69.1579 240.21H302.958C304.477 240.21 305.708 241.44 305.708 242.958C305.708 244.475 304.477 245.705 302.958 245.705H71.319V326.567Z" fill="#D8DEED"/>
<path d="M125.613 234.323L129.392 219.093H101.026C98.0788 219.093 95.6421 216.856 95.6421 214.148V171.012C95.6032 168.265 98.0002 166.027 100.987 166.027H187.316C190.263 166.027 192.699 168.265 192.699 170.973V214.148C192.699 216.856 190.263 219.093 187.316 219.093H152.746L151.187 234.323H161.421C162.993 234.323 164.211 235.579 164.211 237.11C164.211 238.68 162.954 239.897 161.421 239.897H117.608C116.037 239.897 114.819 238.641 114.819 237.11C114.74 235.579 116.037 234.323 117.608 234.323H125.613Z" fill="#474961"/>
<path fill-rule="evenodd" clip-rule="evenodd" d="M153.918 207.993L154.034 234.363H151.217L153.918 207.993Z" fill="white"/>
</svg>
